<svg width="24" height="24" viewBox="0 0 24 24" fill="none" xmlns="http://www.w3.org/2000/svg">
  <path fill-rule="evenodd" clip-rule="evenodd" d="M9.71657 2.99628L9.80709 3.04789C10.5607 3.47752 11.2967 3.91979 11.9528 4.3517C12.7003 4.84379 13.5053 5.42865 14.3078 6.04233L14.3806 6.09799C15.7518 7.14657 16.8857 8.01372 17.6625 8.86178C18.4969 9.77278 19 10.7457 19 11.9997C19 13.2536 18.4969 14.2265 17.6625 15.1375C16.8857 15.9856 15.7518 16.8527 14.3806 17.9013L14.3078 17.957C13.5053 18.5707 12.7003 19.1555 11.9528 19.6476C11.2967 20.0795 10.5607 20.5218 9.80709 20.9514L9.7166 21.003C8.36421 21.7741 7.2215 22.4257 6.25348 22.7517C5.18973 23.1099 4.15041 23.1375 3.16425 22.4434C2.22348 21.7814 1.79262 20.7906 1.55093 19.6213C1.31784 18.4937 1.22683 17.0179 1.1145 15.1963L1.10958 15.1166C1.0429 14.0356 1 12.9661 1 11.9997C1 11.0332 1.0429 9.9637 1.10958 8.8827L1.1145 8.80298C1.22683 6.98138 1.31784 5.50566 1.55093 4.37797C1.79262 3.20866 2.22348 2.21794 3.16425 1.55586C4.15041 0.86185 5.18973 0.889366 6.25348 1.24762C7.22149 1.57363 8.3642 2.22518 9.71657 2.99628ZM23 5C23 4.44772 22.5523 4 22 4C21.4477 4 21 4.44772 21 5V20C21 20.5523 21.4477 21 22 21C22.5523 21 23 20.5523 23 20V5Z" fill="white"/>
</svg>
