<svg width="48" height="48" viewBox="0 0 48 48" fill="none" xmlns="http://www.w3.org/2000/svg">
  <circle cx="24" cy="24" r="24" fill="white"/>
  <path d="M19 17.09C19 16.1328 19 15.6541 19.1997 15.3903C19.3736 15.1604 19.6395 15.0182 19.9273 15.001C20.2577 14.9813 20.6561 15.2468 21.453 15.7778L31.8224 22.6878C32.4809 23.1265 32.8101 23.3459 32.9248 23.6224C33.0251 23.8642 33.0251 24.1358 32.9248 24.3776C32.8101 24.6541 32.4809 24.8735 31.8224 25.3122L21.453 32.2222C20.6561 32.7532 20.2577 33.0187 19.9273 32.999C19.6395 32.9818 19.3736 32.8396 19.1997 32.6097C19 32.3459 19 31.8672 19 30.91V17.09Z" stroke="#0BAFFF" stroke-width="2" stroke-linecap="round" stroke-linejoin="round"/>
</svg>
