<svg width="24" height="24" viewBox="0 0 24 24" fill="none" xmlns="http://www.w3.org/2000/svg">
  <path fill-rule="evenodd" clip-rule="evenodd" d="M11.0987 1.56681C11.2652 1.22035 11.6156 1 12 1C18.0751 1 23 5.92487 23 12C23 18.0751 18.0751 23 12 23C5.92487 23 1 18.0751 1 12C1 7.48774 3.71673 3.61225 7.59963 1.91573C8.10572 1.69462 8.69523 1.92563 8.91635 2.43172C9.13747 2.9378 8.90646 3.52732 8.40037 3.74844C5.21965 5.13816 3 8.31098 3 12C3 16.9706 7.02944 21 12 21C16.9706 21 21 16.9706 21 12C21 7.83258 18.1675 4.32672 14.3227 3.30257L14.7809 3.8753C15.1259 4.30657 15.056 4.93586 14.6247 5.28087C14.1934 5.62588 13.5641 5.55596 13.2191 5.12469L11.2191 2.6247C10.979 2.32453 10.9322 1.91328 11.0987 1.56681Z" fill="white"/>
  <path fill-rule="evenodd" clip-rule="evenodd" d="M12.4374 8.52566C12.6415 7.91315 13.2147 7.5 13.8604 7.5H16.5C17.0523 7.5 17.5 7.94772 17.5 8.5C17.5 9.05228 17.0523 9.5 16.5 9.5H14.2208L13.8874 10.5H14.5C16.1569 10.5 17.5 11.8431 17.5 13.5C17.5 15.1569 16.1569 16.5 14.5 16.5H12.5C11.9477 16.5 11.5 16.0523 11.5 15.5C11.5 14.9477 11.9477 14.5 12.5 14.5H14.5C15.0523 14.5 15.5 14.0523 15.5 13.5C15.5 12.9477 15.0523 12.5 14.5 12.5H13.1937C12.1699 12.5 11.4469 11.497 11.7707 10.5257L12.4374 8.52566ZM14.3347 9.15811C14.3347 9.15821 14.3347 9.15831 14.3346 9.15841L14.3347 9.15811Z" fill="white"/>
  <path fill-rule="evenodd" clip-rule="evenodd" d="M10.4332 7.59871C10.7797 7.76523 11 8.1156 11 8.50001V15.5C11 16.0523 10.5523 16.5 10 16.5C9.44775 16.5 9.00004 16.0523 9.00004 15.5V10.5806L8.12473 11.2809C7.69347 11.6259 7.06418 11.556 6.71917 11.1247C6.37416 10.6934 6.44408 10.0642 6.87534 9.71914L9.37534 7.71914C9.67551 7.479 10.0868 7.43219 10.4332 7.59871Z" fill="white"/>
</svg>
