<svg width="24" height="24" viewBox="0 0 24 24" fill="none" xmlns="http://www.w3.org/2000/svg">
  <path fill-rule="evenodd" clip-rule="evenodd" d="M21.0063 2.60863C20.79 2.10046 20.2027 1.86384 19.6946 2.08013C19.1864 2.29642 18.9498 2.88371 19.1661 3.39188C19.7026 4.65246 20 6.04034 20 7.50026C20 8.96017 19.7026 10.3481 19.1661 11.6086C18.9498 12.1168 19.1864 12.7041 19.6946 12.9204C20.2027 13.1367 20.79 12.9001 21.0063 12.3919C21.6463 10.8881 22 9.23421 22 7.50026C22 5.7663 21.6463 4.11237 21.0063 2.60863ZM7 7.5C7 6.11929 8.11929 5 9.5 5C10.8807 5 12 6.11929 12 7.5C12 8.88071 10.8807 10 9.5 10C8.11929 10 7 8.88071 7 7.5ZM9.5 3C7.01472 3 5 5.01472 5 7.5C5 9.98528 7.01472 12 9.5 12C11.9853 12 14 9.98528 14 7.5C14 5.01472 11.9853 3 9.5 3ZM5.71627 16.1638C4.88664 16.8085 4.27747 17.7375 4.06806 19H14.9319C14.7225 17.7375 14.1134 16.8085 13.2837 16.1638C12.3143 15.4104 10.9812 15 9.5 15C8.0188 15 6.6857 15.4104 5.71627 16.1638ZM3.4878 21C2.67391 21 1.94376 20.3267 2.00342 19.4327C2.14428 17.3215 3.07518 15.6814 4.48498 14.5858C5.8743 13.5061 7.66728 13 9.5 13C11.3327 13 13.1257 13.5061 14.515 14.5858C15.9248 15.6814 16.8557 17.3215 16.9966 19.4327C17.0562 20.3267 16.3261 21 15.5122 21H3.4878ZM16.2403 4.05742C16.761 3.87337 17.3323 4.14629 17.5164 4.66701C17.83 5.5545 18.0003 6.50858 18.0003 7.50026C18.0003 8.49194 17.83 9.44601 17.5164 10.3335C17.3323 10.8542 16.761 11.1271 16.2403 10.9431C15.7196 10.7591 15.4466 10.1877 15.6307 9.66701C15.8698 8.99061 16.0003 8.26176 16.0003 7.50026C16.0003 6.73876 15.8698 6.00991 15.6307 5.3335C15.4466 4.81279 15.7196 4.24146 16.2403 4.05742Z" fill="white"/>
</svg>
