<svg width="24" height="24" viewBox="0 0 24 24" fill="none" xmlns="http://www.w3.org/2000/svg">
  <path fill-rule="evenodd" clip-rule="evenodd" d="M12.9013 1.56681C12.7348 1.22035 12.3844 1 12 1C5.92487 1 1 5.92487 1 12C1 18.0751 5.92487 23 12 23C18.0751 23 23 18.0751 23 12C23 7.48774 20.2833 3.61225 16.4004 1.91573C15.8943 1.69462 15.3048 1.92563 15.0836 2.43172C14.8625 2.9378 15.0935 3.52732 15.5996 3.74844C18.7803 5.13816 21 8.31098 21 12C21 16.9706 16.9706 21 12 21C7.02944 21 3 16.9706 3 12C3 7.83258 5.83249 4.32672 9.67732 3.30257L9.21913 3.8753C8.87412 4.30657 8.94404 4.93586 9.37531 5.28087C9.80657 5.62588 10.4359 5.55596 10.7809 5.12469L12.7809 2.6247C13.021 2.32453 13.0678 1.91328 12.9013 1.56681Z" fill="white"/>
  <path fill-rule="evenodd" clip-rule="evenodd" d="M12.4374 8.52566C12.6415 7.91315 13.2147 7.5 13.8604 7.5H16.5C17.0523 7.5 17.5 7.94772 17.5 8.5C17.5 9.05228 17.0523 9.5 16.5 9.5H14.2208L13.8874 10.5H14.5C16.1569 10.5 17.5 11.8431 17.5 13.5C17.5 15.1569 16.1569 16.5 14.5 16.5H12.5C11.9477 16.5 11.5 16.0523 11.5 15.5C11.5 14.9477 11.9477 14.5 12.5 14.5H14.5C15.0523 14.5 15.5 14.0523 15.5 13.5C15.5 12.9477 15.0523 12.5 14.5 12.5H13.1937C12.1699 12.5 11.4469 11.497 11.7707 10.5257L12.4374 8.52566ZM14.3347 9.15811C14.3347 9.15821 14.3347 9.15831 14.3346 9.15841L14.3347 9.15811Z" fill="white"/>
  <path fill-rule="evenodd" clip-rule="evenodd" d="M10.4332 7.59871C10.7797 7.76523 11 8.1156 11 8.50001V15.5C11 16.0523 10.5523 16.5 10 16.5C9.44775 16.5 9.00004 16.0523 9.00004 15.5V10.5806L8.12473 11.2809C7.69347 11.6259 7.06418 11.556 6.71917 11.1247C6.37416 10.6934 6.44408 10.0642 6.87534 9.71914L9.37534 7.71914C9.67551 7.479 10.0868 7.43219 10.4332 7.59871Z" fill="white"/>
</svg>
