<svg width="24" height="24" viewBox="0 0 24 24" fill="none" xmlns="http://www.w3.org/2000/svg">
  <g opacity="0.4">
    <path fill-rule="evenodd" clip-rule="evenodd" d="M14.1789 3.7179C13.7824 3.33343 13.7726 2.70034 14.1571 2.30385C14.5416 1.90737 15.1747 1.89763 15.5711 2.2821L19.6961 6.2821C19.8904 6.47044 20 6.72945 20 7C20 7.27055 19.8904 7.52956 19.6961 7.7179L15.5711 11.7179C15.1747 12.1024 14.5416 12.0926 14.1571 11.6961C13.7726 11.2997 13.7824 10.6666 14.1789 10.2821L16.5323 8H7C6.44772 8 6 8.44772 6 9V10C6 10.5523 5.55229 11 5 11C4.44771 11 4 10.5523 4 10V9C4 7.34315 5.34315 6 7 6H16.5323L14.1789 3.7179ZM9.82115 13.7179C10.2176 13.3334 10.2274 12.7003 9.8429 12.3039C9.45843 11.9074 8.82534 11.8976 8.42885 12.2821L4.30385 16.2821C4.10963 16.4704 4 16.7294 4 17C4 17.2706 4.10963 17.5296 4.30385 17.7179L8.42885 21.7179C8.82534 22.1024 9.45843 22.0926 9.8429 21.6961C10.2274 21.2997 10.2176 20.6666 9.82115 20.2821L7.46773 18L17 18C18.6569 18 20 16.6569 20 15V14C20 13.4477 19.5523 13 19 13C18.4477 13 18 13.4477 18 14V15C18 15.5523 17.5523 16 17 16L7.46773 16L9.82115 13.7179Z" fill="white"/>
  </g>
</svg>
