<svg width="48" height="48" viewBox="0 0 48 48" fill="none" xmlns="http://www.w3.org/2000/svg">
  <path fill-rule="evenodd" clip-rule="evenodd" d="M44 24C44 35.0457 35.0457 44 24 44C12.9543 44 4 35.0457 4 24C4 12.9543 12.9543 4 24 4C35.0457 4 44 12.9543 44 24ZM24.4839 17.5336C25.0403 17.8719 25.5777 18.2166 26.0522 18.5498C26.5931 18.9297 27.1817 19.3855 27.7752 19.8696C29.9251 21.6234 31 22.5002 31 24C31 25.4998 29.9251 26.3766 27.7752 28.1304C27.1817 28.6145 26.5931 29.0703 26.0522 29.4502C25.5777 29.7834 25.0403 30.1281 24.4839 30.4664C22.3391 31.7707 21.2667 32.4228 20.3048 31.7008C19.343 30.9788 19.2556 29.4673 19.0808 26.4443C19.0313 25.5894 19 24.7513 19 24C19 23.2487 19.0313 22.4106 19.0808 21.5557C19.2556 18.5327 19.343 17.0212 20.3048 16.2992C21.2667 15.5772 22.3391 16.2293 24.4839 17.5336Z" fill="white"/>
</svg>
