<svg width="24" height="24" viewBox="0 0 24 24" fill="none" xmlns="http://www.w3.org/2000/svg">
  <path fill-rule="evenodd" clip-rule="evenodd" d="M14.2834 2.99628L14.1929 3.04789C13.4393 3.47752 12.7033 3.91979 12.0472 4.3517C11.2997 4.84379 10.4947 5.42865 9.69222 6.04233L9.61944 6.09799C8.24824 7.14657 7.11428 8.01372 6.33751 8.86178C5.50309 9.77278 5 10.7457 5 11.9997C5 13.2536 5.50309 14.2265 6.33751 15.1375C7.11428 15.9856 8.24824 16.8527 9.61944 17.9013L9.69222 17.957C10.4947 18.5707 11.2997 19.1555 12.0472 19.6476C12.7033 20.0795 13.4393 20.5218 14.1929 20.9514L14.2834 21.003C15.6358 21.7741 16.7785 22.4257 17.7465 22.7517C18.8103 23.1099 19.8496 23.1375 20.8358 22.4434C21.7765 21.7814 22.2074 20.7906 22.4491 19.6213C22.6822 18.4937 22.7732 17.0179 22.8855 15.1963L22.8904 15.1166C22.9571 14.0356 23 12.9661 23 11.9997C23 11.0332 22.9571 9.9637 22.8904 8.8827L22.8855 8.80298C22.7732 6.98138 22.6822 5.50566 22.4491 4.37797C22.2074 3.20866 21.7765 2.21794 20.8358 1.55586C19.8496 0.86185 18.8103 0.889366 17.7465 1.24762C16.7785 1.57363 15.6358 2.22518 14.2834 2.99627L14.2834 2.99628ZM1 5C1 4.44772 1.44772 4 2 4C2.55228 4 3 4.44772 3 5V20C3 20.5523 2.55228 21 2 21C1.44772 21 1 20.5523 1 20V5Z" fill="white"/>
</svg>
