<svg width="24" height="24" viewBox="0 0 24 24" fill="none" xmlns="http://www.w3.org/2000/svg">
  <path fill-rule="evenodd" clip-rule="evenodd" d="M14.1425 4.48566C14.4267 4.01208 15.0409 3.85851 15.5145 4.14266C18.303 5.81574 20 8.63429 20 12.0002C20 15.366 18.303 18.1846 15.5145 19.8576C15.0409 20.1418 14.4267 19.9882 14.1425 19.5146C13.8584 19.0411 14.0119 18.4268 14.4855 18.1427C16.697 16.8157 18 14.6343 18 12.0002C18 9.36601 16.697 7.18456 14.4855 5.85764C14.0119 5.5735 13.8584 4.95924 14.1425 4.48566ZM11.3827 4.07627C11.7564 4.23105 12 4.59569 12 5.00015V19.0002C12 19.4046 11.7564 19.7692 11.3827 19.924C11.009 20.0788 10.5789 19.9933 10.2929 19.7073L6.58579 16.0002H5C4.44772 16.0002 4 15.5524 4 15.0002V9.00015C4 8.44787 4.44772 8.00015 5 8.00015H6.58579L10.2929 4.29304C10.5789 4.00705 11.009 3.92149 11.3827 4.07627ZM10 7.41436L7.70711 9.70726C7.51957 9.89479 7.26522 10.0002 7 10.0002H6V14.0002H7C7.26522 14.0002 7.51957 14.1055 7.70711 14.293L10 16.5859V7.41436ZM13.2 8.40015C13.5314 7.95832 14.1582 7.86878 14.6 8.20015C17.1333 10.1002 17.1333 13.9002 14.6 15.8002C14.1582 16.1315 13.5314 16.042 13.2 15.6002C12.8686 15.1583 12.9582 14.5315 13.4 14.2002C14.8667 13.1002 14.8667 10.9002 13.4 9.80015C12.9582 9.46878 12.8686 8.84198 13.2 8.40015Z" fill="white"/>
</svg>
