<svg width="24" height="24" viewBox="0 0 24 24" fill="none" xmlns="http://www.w3.org/2000/svg">
  <path fill-rule="evenodd" clip-rule="evenodd" d="M11.3827 4.07615C11.7564 4.23093 12 4.59557 12 5.00003V19C12 19.4045 11.7564 19.7691 11.3827 19.9239C11.009 20.0787 10.5789 19.9931 10.2929 19.7071L6.58579 16H5C4.44772 16 4 15.5523 4 15V9.00003C4 8.44774 4.44772 8.00003 5 8.00003H6.58579L10.2929 4.29292C10.5789 4.00692 11.009 3.92137 11.3827 4.07615ZM10 7.41424L7.70711 9.70714C7.51957 9.89467 7.26522 10 7 10H6V14H7C7.26522 14 7.51957 14.1054 7.70711 14.2929L10 16.5858V7.41424ZM13.2929 9.29292C13.6834 8.9024 14.3166 8.9024 14.7071 9.29292L16.5 11.0858L18.2929 9.29292C18.6834 8.9024 19.3166 8.9024 19.7071 9.29292C20.0976 9.68345 20.0976 10.3166 19.7071 10.7071L17.9142 12.5L19.7071 14.2929C20.0976 14.6834 20.0976 15.3166 19.7071 15.7071C19.3166 16.0977 18.6834 16.0977 18.2929 15.7071L16.5 13.9142L14.7071 15.7071C14.3166 16.0977 13.6834 16.0977 13.2929 15.7071C12.9024 15.3166 12.9024 14.6834 13.2929 14.2929L15.0858 12.5L13.2929 10.7071C12.9024 10.3166 12.9024 9.68345 13.2929 9.29292Z" fill="white"/>
</svg>
