<svg width="48" height="48" viewBox="0 0 48 48" fill="none" xmlns="http://www.w3.org/2000/svg">
  <path fill-rule="evenodd" clip-rule="evenodd" d="M44 24C44 35.0457 35.0457 44 24 44C12.9543 44 4 35.0457 4 24C4 12.9543 12.9543 4 24 4C35.0457 4 44 12.9543 44 24ZM16 19C16 18.0681 16 17.6022 16.1522 17.2346C16.3552 16.7446 16.7446 16.3552 17.2346 16.1522C17.6022 16 18.0681 16 19 16C19.9319 16 20.3978 16 20.7654 16.1522C21.2554 16.3552 21.6448 16.7446 21.8478 17.2346C22 17.6022 22 18.0681 22 19V29C22 29.9319 22 30.3978 21.8478 30.7654C21.6448 31.2554 21.2554 31.6448 20.7654 31.8478C20.3978 32 19.9319 32 19 32C18.0681 32 17.6022 32 17.2346 31.8478C16.7446 31.6448 16.3552 31.2554 16.1522 30.7654C16 30.3978 16 29.9319 16 29V19ZM26 19C26 18.0681 26 17.6022 26.1522 17.2346C26.3552 16.7446 26.7446 16.3552 27.2346 16.1522C27.6022 16 28.0681 16 29 16C29.9319 16 30.3978 16 30.7654 16.1522C31.2554 16.3552 31.6448 16.7446 31.8478 17.2346C32 17.6022 32 18.0681 32 19V29C32 29.9319 32 30.3978 31.8478 30.7654C31.6448 31.2554 31.2554 31.6448 30.7654 31.8478C30.3978 32 29.9319 32 29 32C28.0681 32 27.6022 32 27.2346 31.8478C26.7446 31.6448 26.3552 31.2554 26.1522 30.7654C26 30.3978 26 29.9319 26 29V19Z" fill="white"/>
</svg>
